<?xml version="1.0" standalone="no"?>
<!DOCTYPE svg PUBLIC "-//W3C//DTD SVG 20010904//EN"
 "http://www.w3.org/TR/2001/REC-SVG-20010904/DTD/svg10.dtd">
<svg version="1.0" xmlns="http://www.w3.org/2000/svg"
 width="700.000000pt" height="700.000000pt" viewBox="0 0 700.000000 700.000000"
 preserveAspectRatio="xMidYMid meet">
<metadata>
Created by potrace 1.14, written by Peter Selinger 2001-2017
</metadata>
<g transform="translate(0.000000,700.000000) scale(0.100000,-0.100000)"
fill="#000000" stroke="none">
<path d="M973 6586 c-271 -74 -478 -278 -560 -551 -17 -57 -18 -185 -21 -2505
-2 -2414 -2 -2446 18 -2532 69 -304 299 -530 602 -592 70 -14 319 -16 2495
-15 2623 1 2476 -2 2615 54 194 79 367 255 437 445 54 146 51 -11 50 2615 0
2364 -1 2432 -20 2508 -71 290 -290 507 -582 577 -81 20 -125 20 -2517 19
l-2435 -1 -82 -22z m4842 -367 c82 -1 112 -6 164 -27 118 -47 215 -167 236
-291 9 -56 10 -4740 0 -4801 -15 -101 -92 -214 -180 -265 -22 -13 -66 -31 -99
-40 -54 -16 -239 -17 -2446 -17 -2342 1 -2388 1 -2443 20 -133 47 -232 157
-262 292 -9 41 -10 4746 -1 4810 10 67 63 164 118 216 52 48 130 88 193 98 21
4 40 8 41 9 3 2 4513 -1 4679 -4z"/>
<path d="M2350 5109 c-60 -7 -84 -11 -150 -24 -45 -9 -149 -45 -207 -72 -290
-132 -494 -423 -519 -738 -3 -38 -7 -75 -9 -81 -10 -34 10 -37 250 -38 130 -1
239 3 242 7 3 5 7 35 9 68 11 171 116 329 269 404 85 43 154 56 264 54 153 -3
261 -48 362 -149 94 -95 122 -166 123 -315 1 -117 -2 -141 -29 -220 -38 -111
-127 -249 -240 -375 -18 -19 -59 -64 -91 -100 -32 -36 -97 -108 -144 -160 -47
-52 -105 -117 -130 -145 -25 -27 -48 -52 -51 -55 -3 -3 -29 -32 -59 -65 -53
-59 -166 -186 -212 -236 -12 -14 -54 -61 -93 -104 -38 -43 -75 -83 -80 -89
-10 -10 -79 -87 -164 -181 -20 -22 -74 -82 -120 -133 l-84 -93 -1 -159 c-1
-100 3 -160 9 -161 33 -4 2065 -3 2066 1 6 23 4 398 -2 410 -6 13 -91 15 -678
15 -530 0 -672 2 -676 12 -4 12 32 58 124 158 20 22 68 76 106 120 39 44 79
89 90 101 19 20 83 92 180 202 22 25 47 53 55 62 22 23 151 169 186 209 16 19
35 40 42 47 8 8 65 74 129 147 239 275 335 442 378 660 17 90 13 280 -9 362
-91 342 -363 573 -755 640 -103 18 -284 25 -381 14z"/>
<path d="M4791 5039 c-14 -9 -99 -70 -188 -135 -89 -66 -172 -126 -184 -134
-12 -8 -34 -24 -48 -35 -14 -12 -84 -63 -156 -115 -71 -52 -133 -98 -137 -104
-8 -11 -9 -486 -1 -486 5 0 324 227 622 442 51 38 97 68 102 68 5 0 9 -553 9
-1295 0 -712 3 -1296 8 -1296 4 -1 118 -2 255 -3 l247 -1 0 200 c1 2209 0
2899 -5 2903 -3 4 -117 6 -252 7 -211 0 -250 -2 -272 -16z"/>
</g>
</svg>
